<svg xmlns="http://www.w3.org/2000/svg" xmlns:xlink="http://www.w3.org/1999/xlink" viewBox="0 0 70 30.27"><defs><style>.cls-1{fill:url(#linear-gradient);}.cls-2{fill:url(#linear-gradient-2);}.cls-3{fill:url(#linear-gradient-3);}.cls-4{fill:url(#linear-gradient-4);}.cls-5{fill:url(#linear-gradient-5);}</style><linearGradient id="linear-gradient" x1="-555.74" y1="386.28" x2="-555.74" y2="385.28" gradientTransform="matrix(46.21, 0, 0, -23.1, 25715.54, 8932.06)" gradientUnits="userSpaceOnUse"><stop offset="0" stop-color="#2d013a"/><stop offset="1" stop-color="#760072"/></linearGradient><linearGradient id="linear-gradient-2" x1="-545.35" y1="385.68" x2="-545.35" y2="384.68" gradientTransform="matrix(25.06, 0, 0, -22.23, 13722.31, 8580.3)" xlink:href="#linear-gradient"/><linearGradient id="linear-gradient-3" x1="-545.35" y1="385.71" x2="-545.35" y2="384.71" gradientTransform="matrix(25.06, 0, 0, -22.27, 13677.37, 8598.45)" xlink:href="#linear-gradient"/><linearGradient id="linear-gradient-4" x1="-483.47" y1="422.68" x2="-483.47" y2="421.68" gradientTransform="matrix(5.44, 5.44, 5.12, -5.12, 510.73, 4797.15)" xlink:href="#linear-gradient"/><linearGradient id="linear-gradient-5" x1="-587.98" y1="491.35" x2="-587.98" y2="490.35" gradientTransform="matrix(-5.44, 5.44, 5.12, 5.12, -5684.28, 690.74)" xlink:href="#linear-gradient"/></defs><g id="Layer_2" data-name="Layer 2"><g id="Layer_1-2" data-name="Layer 1"><g id="Group_214" data-name="Group 214"><g id="Component_1_26" data-name="Component 1 26"><path id="Subtraction_20" data-name="Subtraction 20" class="cls-1" d="M58.1,30.27h-16L35,23.14l-7.13,7.13h-16L35,7.16,58.1,30.27Z"/><path id="Subtraction_21" data-name="Subtraction 21" class="cls-2" d="M67.74,30.27H62.08L44.94,13.13,50,8,70,28Z"/><path id="Subtraction_22" data-name="Subtraction 22" class="cls-3" d="M7.87,30.27H2.3L0,28,20,8l5.09,5.09Z"/><path id="Rectangle_135" data-name="Rectangle 135" class="cls-4" d="M42,0l5.44,5.44-5.12,5.12L36.9,5.15Z"/><path id="Rectangle_136" data-name="Rectangle 136" class="cls-5" d="M33,5.12l-5.44,5.44L22.46,5.44,27.9,0Z"/></g></g></g></g></svg>